<svg width="117" height="55" viewBox="0 0 117 55" fill="none" xmlns="http://www.w3.org/2000/svg">
<path d="M8.50598 21.1308V30.7009H5.899V23.1869H2.60698V30.7009H0V21.1308H8.50598Z" fill="#00BFEA"/>
<path d="M10.1984 30.7009V21.1308H17.2201V23.2243H12.8434V24.8692H16.8585V26.9626H12.8434V28.6075H17.2011V30.7009H10.1984Z" fill="#00BFEA"/>
<path d="M18.2655 23.2243V21.1308H26.7334V23.2243H23.8029V30.7009H21.196V23.2243H18.2655Z" fill="#00BFEA"/>
<path d="M27.7289 30.7009V21.1308H31.9343C32.6574 21.1308 33.2901 21.271 33.8324 21.5514C34.3748 21.8318 34.7966 22.2259 35.0979 22.7336C35.3992 23.2414 35.5498 23.8349 35.5498 24.514C35.5498 25.1994 35.3944 25.7928 35.0836 26.2944C34.776 26.796 34.343 27.1822 33.7849 27.4533C33.2298 27.7243 32.5813 27.8598 31.8391 27.8598H29.3273V25.8411H31.3063C31.6171 25.8411 31.882 25.7882 32.1008 25.6822C32.3228 25.5732 32.4925 25.419 32.6098 25.2196C32.7303 25.0202 32.7906 24.785 32.7906 24.514C32.7906 24.2399 32.7303 24.0062 32.6098 23.8131C32.4925 23.6168 32.3228 23.4673 32.1008 23.3645C31.882 23.2586 31.6171 23.2056 31.3063 23.2056H30.3739V30.7009H27.7289Z" fill="#00BFEA"/>
<path d="M45.9587 25.9159C45.9587 26.9813 45.7478 27.8801 45.326 28.6122C44.9042 29.3411 44.3349 29.8941 43.6181 30.271C42.9013 30.6449 42.1021 30.8318 41.2204 30.8318C40.3324 30.8318 39.53 30.6433 38.8133 30.2664C38.0997 29.8863 37.532 29.3318 37.1102 28.6028C36.6915 27.8707 36.4822 26.9751 36.4822 25.9159C36.4822 24.8505 36.6915 23.9533 37.1102 23.2243C37.532 22.4922 38.0997 21.9393 38.8133 21.5654C39.53 21.1885 40.3324 21 41.2204 21C42.1021 21 42.9013 21.1885 43.6181 21.5654C44.3349 21.9393 44.9042 22.4922 45.326 23.2243C45.7478 23.9533 45.9587 24.8505 45.9587 25.9159ZM43.2375 25.9159C43.2375 25.3427 43.1598 24.8598 43.0044 24.4673C42.8522 24.0717 42.6254 23.7726 42.3241 23.5701C42.026 23.3645 41.6581 23.2617 41.2204 23.2617C40.7828 23.2617 40.4133 23.3645 40.112 23.5701C39.8139 23.7726 39.5871 24.0717 39.4317 24.4673C39.2795 24.8598 39.2034 25.3427 39.2034 25.9159C39.2034 26.4891 39.2795 26.9735 39.4317 27.3692C39.5871 27.7617 39.8139 28.0607 40.112 28.2664C40.4133 28.4688 40.7828 28.5701 41.2204 28.5701C41.6581 28.5701 42.026 28.4688 42.3241 28.2664C42.6254 28.0607 42.8522 27.7617 43.0044 27.3692C43.1598 26.9735 43.2375 26.4891 43.2375 25.9159Z" fill="#00BFEA"/>
<path d="M51.0073 30.8318C50.2398 30.8318 49.5579 30.7025 48.9617 30.4439C48.3686 30.1822 47.9024 29.8224 47.5631 29.3645C47.2237 28.9065 47.0524 28.3801 47.0493 27.785H49.7133C49.7165 27.9688 49.7736 28.134 49.8846 28.2804C49.9988 28.4237 50.1542 28.5358 50.3508 28.6168C50.5474 28.6978 50.7726 28.7383 51.0263 28.7383C51.2706 28.7383 51.4862 28.6963 51.6733 28.6122C51.8605 28.5249 52.0063 28.405 52.111 28.2523C52.2157 28.0997 52.2664 27.9252 52.2632 27.729C52.2664 27.5358 52.2061 27.3645 52.0825 27.215C51.9619 27.0654 51.7923 26.9486 51.5734 26.8645C51.3546 26.7804 51.1025 26.7383 50.817 26.7383H49.8275V24.9439H50.817C51.0803 24.9439 51.3118 24.9019 51.5116 24.8178C51.7146 24.7336 51.8716 24.6168 51.9826 24.4673C52.0967 24.3178 52.1522 24.1464 52.1491 23.9533C52.1522 23.7664 52.1062 23.6012 52.0111 23.4579C51.916 23.3146 51.7827 23.2025 51.6115 23.1215C51.4434 23.0405 51.2484 23 51.0263 23C50.7853 23 50.5697 23.0421 50.3794 23.1262C50.1922 23.2103 50.0448 23.3271 49.9369 23.4766C49.8291 23.6262 49.7736 23.7975 49.7704 23.9907H47.2396C47.2427 23.405 47.4061 22.8879 47.7296 22.4393C48.0562 21.9907 48.5034 21.6386 49.0711 21.3832C49.6388 21.1277 50.2906 21 51.0263 21C51.7463 21 52.3822 21.1199 52.934 21.3598C53.489 21.5997 53.9219 21.9299 54.2327 22.3505C54.5467 22.7679 54.7021 23.2461 54.6989 23.785C54.7053 24.3209 54.5182 24.7601 54.1376 25.1028C53.7602 25.4455 53.2813 25.648 52.7009 25.7103V25.785C53.4874 25.8692 54.0789 26.1059 54.4754 26.4953C54.8718 26.8816 55.0668 27.3676 55.0605 27.9533C55.0637 28.514 54.8924 29.0109 54.5467 29.4439C54.2042 29.8769 53.7269 30.2165 53.1148 30.4626C52.5059 30.7087 51.8034 30.8318 51.0073 30.8318Z" fill="#00BFEA"/>
<path d="M58.7533 30.7009H55.899L59.1149 21.1308H62.7304L65.9463 30.7009H63.0919L60.9607 23.7664H60.8846L58.7533 30.7009ZM58.2205 26.9252H63.5867V28.8692H58.2205V26.9252Z" fill="#00BFEA"/>
<path d="M66.8847 30.7009V21.1308H71.1091C71.8512 21.1308 72.4745 21.229 72.9787 21.4252C73.4862 21.6215 73.8683 21.8988 74.1252 22.257C74.3853 22.6153 74.5153 23.0374 74.5153 23.5234C74.5153 23.8754 74.436 24.1963 74.2775 24.486C74.122 24.7757 73.9032 25.0187 73.6209 25.215C73.3387 25.4081 73.0088 25.5421 72.6314 25.6168V25.7103C73.0501 25.7259 73.4307 25.8302 73.7732 26.0234C74.1157 26.2134 74.3885 26.4766 74.5914 26.8131C74.7944 27.1464 74.8959 27.5389 74.8959 27.9907C74.8959 28.514 74.7563 28.9798 74.4772 29.3879C74.2013 29.796 73.8081 30.1168 73.2974 30.3505C72.7868 30.5841 72.1779 30.7009 71.4707 30.7009H66.8847ZM69.5297 28.6262H70.7666C71.2106 28.6262 71.5436 28.5452 71.7656 28.3832C71.9876 28.2181 72.0986 27.9751 72.0986 27.6542C72.0986 27.4299 72.0463 27.2399 71.9416 27.0841C71.837 26.9283 71.6879 26.81 71.4944 26.729C71.3042 26.648 71.0742 26.6075 70.8046 26.6075H69.5297V28.6262ZM69.5297 25H70.6144C70.8459 25 71.0504 24.9642 71.228 24.8925C71.4056 24.8209 71.5436 24.7181 71.6419 24.5841C71.7434 24.447 71.7942 24.2804 71.7942 24.0841C71.7942 23.7882 71.6863 23.5623 71.4707 23.4065C71.255 23.2477 70.9823 23.1682 70.6524 23.1682H69.5297V25Z" fill="#00BFEA"/>
<path d="M85.2715 25.9159C85.2715 26.9813 85.0606 27.8801 84.6388 28.6122C84.2169 29.3411 83.6477 29.8941 82.9309 30.271C82.2141 30.6449 81.4149 30.8318 80.5332 30.8318C79.6452 30.8318 78.8428 30.6433 78.1261 30.2664C77.4125 29.8863 76.8448 29.3318 76.423 28.6028C76.0043 27.8707 75.795 26.9751 75.795 25.9159C75.795 24.8505 76.0043 23.9533 76.423 23.2243C76.8448 22.4922 77.4125 21.9393 78.1261 21.5654C78.8428 21.1885 79.6452 21 80.5332 21C81.4149 21 82.2141 21.1885 82.9309 21.5654C83.6477 21.9393 84.2169 22.4922 84.6388 23.2243C85.0606 23.9533 85.2715 24.8505 85.2715 25.9159ZM82.5503 25.9159C82.5503 25.3427 82.4726 24.8598 82.3172 24.4673C82.165 24.0717 81.9382 23.7726 81.6369 23.5701C81.3388 23.3645 80.9709 23.2617 80.5332 23.2617C80.0956 23.2617 79.7261 23.3645 79.4248 23.5701C79.1267 23.7726 78.8999 24.0717 78.7445 24.4673C78.5923 24.8598 78.5162 25.3427 78.5162 25.9159C78.5162 26.4891 78.5923 26.9735 78.7445 27.3692C78.8999 27.7617 79.1267 28.0607 79.4248 28.2664C79.7261 28.4688 80.0956 28.5701 80.5332 28.5701C80.9709 28.5701 81.3388 28.4688 81.6369 28.2664C81.9382 28.0607 82.165 27.7617 82.3172 27.3692C82.4726 26.9735 82.5503 26.4891 82.5503 25.9159Z" fill="#00BFEA"/>
<path d="M86.1718 33V28.7009H86.8568C87.0852 28.5639 87.2913 28.3707 87.4753 28.1215C87.6624 27.8723 87.821 27.5156 87.951 27.0514C88.0842 26.5872 88.1825 25.9657 88.2459 25.1869L88.5694 21.1308H95.458V28.7009H96.4855V33H93.9356V30.7009H88.7217V33H86.1718ZM89.8824 28.7009H92.9081V23.2243H90.9481L90.7958 25.1869C90.7514 25.7726 90.6832 26.285 90.5913 26.7243C90.5025 27.1604 90.3962 27.5405 90.2725 27.8645C90.152 28.1854 90.022 28.4642 89.8824 28.7009Z" fill="#00BFEA"/>
<path d="M106.476 24.7196H103.793C103.774 24.5016 103.723 24.3037 103.64 24.1262C103.561 23.9486 103.45 23.796 103.307 23.6682C103.168 23.5374 102.998 23.4377 102.798 23.3692C102.599 23.2975 102.372 23.2617 102.118 23.2617C101.674 23.2617 101.298 23.3676 100.991 23.5794C100.686 23.7913 100.455 24.095 100.296 24.4907C100.141 24.8863 100.063 25.3614 100.063 25.9159C100.063 26.5016 100.142 26.9922 100.301 27.3879C100.463 27.7804 100.696 28.0763 101 28.2757C101.305 28.472 101.671 28.5701 102.099 28.5701C102.343 28.5701 102.562 28.5405 102.756 28.4813C102.949 28.419 103.117 28.3302 103.26 28.215C103.403 28.0997 103.518 27.9611 103.607 27.7991C103.699 27.634 103.761 27.4486 103.793 27.243L106.476 27.2617C106.444 27.6667 106.328 28.0794 106.128 28.5C105.929 28.9174 105.645 29.3037 105.277 29.6589C104.912 30.0109 104.46 30.2944 103.921 30.5093C103.382 30.7243 102.756 30.8318 102.042 30.8318C101.148 30.8318 100.345 30.6433 99.6348 30.2664C98.9276 29.8894 98.3678 29.3349 97.9555 28.6028C97.5464 27.8707 97.3418 26.9751 97.3418 25.9159C97.3418 24.8505 97.5511 23.9533 97.9698 23.2243C98.3884 22.4922 98.953 21.9393 99.6634 21.5654C100.374 21.1885 101.167 21 102.042 21C102.657 21 103.223 21.0826 103.74 21.2477C104.257 21.4128 104.711 21.6542 105.101 21.972C105.491 22.2866 105.805 22.6745 106.043 23.1355C106.281 23.5966 106.425 24.1246 106.476 24.7196Z" fill="#00BFEA"/>
<path d="M113.679 30.7009L110.692 26.8318H110.321V30.7009H107.676V21.1308H110.321V24.7383H110.663L113.461 21.1308H116.791L113.08 25.729L117 30.7009H113.679Z" fill="#00BFEA"/>
<path d="M0 14.5514V0.196262H10.2255V3.33645H3.94817V5.01869H5.42518C6.64656 5.01869 7.71408 5.21262 8.62774 5.60047C9.54614 5.98832 10.2586 6.53505 10.7652 7.24065C11.2764 7.94626 11.5321 8.7757 11.5321 9.72897C11.5321 10.6822 11.2764 11.521 10.7652 12.2453C10.2586 12.9696 9.54614 13.535 8.62774 13.9416C7.71408 14.3481 6.64656 14.5514 5.42518 14.5514H0ZM3.94817 11.4953H5.42518C5.89858 11.4953 6.29624 11.4182 6.61815 11.264C6.9448 11.1098 7.19097 10.8972 7.35666 10.6262C7.52708 10.3551 7.6123 10.0467 7.6123 9.70093C7.6123 9.21028 7.4253 8.80374 7.05132 8.48131C6.67733 8.15421 6.13528 7.99065 5.42518 7.99065H3.94817V11.4953Z" fill="#00BFEA"/>
<path d="M12.9274 0.196262H16.8756V7.71028H16.9892L22.1587 0.196262H25.5104V14.5514H21.5623V7.00935H21.477L16.2223 14.5514H12.9274V0.196262Z" fill="#00BFEA"/>
<path d="M26.8951 14.5514V11.5514L27.2928 11.4953C27.7757 11.4206 28.1757 11.215 28.4929 10.8785C28.8148 10.5374 29.0609 9.99766 29.2314 9.25935C29.4065 8.51636 29.5178 7.50467 29.5651 6.2243L29.7923 0.196262H40.3303V14.5514H36.5241V3.2243H33.4281L33.2008 7.73832C33.1156 9.41121 32.8884 10.7453 32.5191 11.7407C32.1499 12.736 31.5889 13.4533 30.8362 13.8925C30.0835 14.3318 29.0917 14.5514 27.8609 14.5514H26.8951Z" fill="#00BFEA"/>
<path d="M42.1996 14.5514V0.196262H52.4251V3.33645H46.1478V5.01869H47.6248C48.8462 5.01869 49.9137 5.21262 50.8273 5.60047C51.7457 5.98832 52.4582 6.53505 52.9648 7.24065C53.476 7.94626 53.7317 8.7757 53.7317 9.72897C53.7317 10.6822 53.476 11.521 52.9648 12.2453C52.4582 12.9696 51.7457 13.535 50.8273 13.9416C49.9137 14.3481 48.8462 14.5514 47.6248 14.5514H42.1996ZM46.1478 11.4953H47.6248C48.0982 11.4953 48.4958 11.4182 48.8178 11.264C49.1444 11.1098 49.3906 10.8972 49.5563 10.6262C49.7267 10.3551 49.8119 10.0467 49.8119 9.70093C49.8119 9.21028 49.6249 8.80374 49.2509 8.48131C48.8769 8.15421 48.3349 7.99065 47.6248 7.99065H46.1478V11.4953Z" fill="#00BFEA"/>
<path d="M69.2154 7.37383C69.2154 8.97196 68.9006 10.3201 68.271 11.4182C67.6414 12.5117 66.7916 13.3411 65.7217 13.9065C64.6519 14.4673 63.4589 14.7477 62.1428 14.7477C60.8173 14.7477 59.6196 14.465 58.5497 13.8995C57.4846 13.3294 56.6372 12.4977 56.0075 11.4042C55.3827 10.3061 55.0702 8.96262 55.0702 7.37383C55.0702 5.7757 55.3827 4.42991 56.0075 3.33645C56.6372 2.23832 57.4846 1.40888 58.5497 0.848131C59.6196 0.28271 60.8173 0 62.1428 0C63.4589 0 64.6519 0.28271 65.7217 0.848131C66.7916 1.40888 67.6414 2.23832 68.271 3.33645C68.9006 4.42991 69.2154 5.7757 69.2154 7.37383ZM65.1537 7.37383C65.1537 6.51402 65.0377 5.78972 64.8057 5.20093C64.5785 4.60748 64.24 4.15888 63.7903 3.85514C63.3453 3.54673 62.7961 3.39252 62.1428 3.39252C61.4895 3.39252 60.938 3.54673 60.4883 3.85514C60.0433 4.15888 59.7048 4.60748 59.4728 5.20093C59.2456 5.78972 59.132 6.51402 59.132 7.37383C59.132 8.23365 59.2456 8.96028 59.4728 9.55374C59.7048 10.1425 60.0433 10.5911 60.4883 10.8995C60.938 11.2033 61.4895 11.3551 62.1428 11.3551C62.7961 11.3551 63.3453 11.2033 63.7903 10.8995C64.24 10.5911 64.5785 10.1425 64.8057 9.55374C65.0377 8.96028 65.1537 8.23365 65.1537 7.37383Z" fill="#00BFEA"/>
<path d="M71.0422 14.5514V0.196262H77.3195C78.3988 0.196262 79.3433 0.406542 80.1528 0.827103C80.9623 1.24766 81.5919 1.83878 82.0417 2.60047C82.4914 3.36215 82.7163 4.25234 82.7163 5.27103C82.7163 6.29907 82.4843 7.18925 82.0204 7.94159C81.5612 8.69393 80.915 9.27336 80.0818 9.67991C79.2533 10.0864 78.2852 10.2897 77.1775 10.2897H73.4281V7.26168H76.3821C76.8461 7.26168 77.2414 7.18224 77.568 7.02336C77.8994 6.85981 78.1527 6.6285 78.3278 6.32944C78.5077 6.03037 78.5977 5.67757 78.5977 5.27103C78.5977 4.85981 78.5077 4.50935 78.3278 4.21963C78.1527 3.92523 77.8994 3.70093 77.568 3.54673C77.2414 3.38785 76.8461 3.30841 76.3821 3.30841H74.9904V14.5514H71.0422Z" fill="#00BFEA"/>
<path d="M83.682 18V11.5514H84.7046C85.0454 11.3458 85.3531 11.0561 85.6277 10.6822C85.907 10.3084 86.1437 9.77336 86.3378 9.0771C86.5366 8.38084 86.6834 7.4486 86.778 6.28037L87.2609 0.196262H97.5432V11.5514H99.077V18H95.2709V14.5514H87.4882V18H83.682ZM89.2208 11.5514H93.7371V3.33645H90.8114L90.5842 6.28037C90.5179 7.15888 90.4161 7.92757 90.2789 8.58645C90.1463 9.24065 89.9877 9.81075 89.8031 10.2967C89.6232 10.778 89.4291 11.1963 89.2208 11.5514Z" fill="#00BFEA"/>
<path d="M102.912 5.01869H105.922C107.149 5.01869 108.218 5.21262 109.132 5.60047C110.05 5.98832 110.763 6.53505 111.269 7.24065C111.781 7.94626 112.034 8.7757 112.029 9.72897C112.034 10.6822 111.781 11.521 111.269 12.2453C110.763 12.9696 110.05 13.535 109.132 13.9416C108.218 14.3481 107.149 14.5514 105.922 14.5514H100.497V0.196262H104.445V11.4953H105.922C106.401 11.4953 106.801 11.4182 107.122 11.264C107.449 11.1098 107.695 10.8972 107.861 10.6262C108.031 10.3551 108.114 10.0467 108.11 9.70093C108.114 9.21028 107.93 8.80374 107.556 8.48131C107.182 8.15421 106.637 7.99065 105.922 7.99065H102.912V5.01869ZM117 0.196262V14.5514H113.052V0.196262H117Z" fill="#00BFEA"/>
<path d="M10.7272 55L5.38908 47.7227H4.72607V55H0V37H4.72607V43.7852H5.33808L10.3362 37H16.2862L9.65614 45.6484L16.6602 55H10.7272Z" fill="#00BFEA"/>
<path d="M22.451 55H17.3509L23.097 37H29.5571L35.3032 55H30.2031L26.395 41.957H26.259L22.451 55ZM21.4989 47.8984H31.0871V51.5547H21.4989V47.8984Z" fill="#00BFEA"/>
<path d="M36.9798 55V37H44.4939C45.7859 37 46.9164 37.2637 47.8855 37.791C48.8545 38.3184 49.6082 39.0596 50.1465 40.0146C50.6848 40.9697 50.954 42.0859 50.954 43.3633C50.954 44.6523 50.6763 45.7686 50.121 46.7119C49.5713 47.6553 48.7978 48.3818 47.8005 48.8916C46.8088 49.4014 45.6499 49.6562 44.3239 49.6562H39.8358V45.8594H43.3719C43.9272 45.8594 44.4004 45.7598 44.7914 45.5605C45.1881 45.3555 45.4913 45.0654 45.7009 44.6904C45.9163 44.3154 46.0239 43.873 46.0239 43.3633C46.0239 42.8477 45.9163 42.4082 45.7009 42.0449C45.4913 41.6758 45.1881 41.3945 44.7914 41.2012C44.4004 41.002 43.9272 40.9023 43.3719 40.9023H41.7059V55H36.9798Z" fill="#00BFEA"/>
<path d="M52.688 55V37H65.2342V40.9375H57.4141V44.0312H64.5882V47.9688H57.4141V51.0625H65.2002V55H52.688Z" fill="#00BFEA"/>
<path d="M67.0001 55V51.2383L67.4761 51.168C68.0541 51.0742 68.533 50.8164 68.9127 50.3945C69.298 49.9668 69.5927 49.29 69.7967 48.3643C70.0063 47.4326 70.1395 46.1641 70.1962 44.5586L70.4682 37H83.0824V55H78.5263V40.7969H74.8203L74.5482 46.457C74.4462 48.5547 74.1742 50.2275 73.7322 51.4756C73.2902 52.7236 72.6187 53.623 71.7177 54.1738C70.8167 54.7246 69.6295 55 68.1561 55H67.0001Z" fill="#00BFEA"/>
<path d="M85.32 37H90.0461V46.4219H90.1821L96.3702 37H100.382V55H95.6562V45.543H95.5542L89.2641 55H85.32V37Z" fill="#00BFEA"/>
<path d="M117 55H112.274V40.9023H110.608C110.058 40.9023 109.585 40.9814 109.188 41.1396C108.792 41.292 108.486 41.5322 108.27 41.8604C108.061 42.1826 107.956 42.6016 107.956 43.1172C107.956 43.627 108.061 44.04 108.27 44.3564C108.486 44.6729 108.792 44.9043 109.188 45.0508C109.585 45.1914 110.058 45.2617 110.608 45.2617H114.144V49.0586H109.656C108.336 49.0586 107.177 48.833 106.179 48.3818C105.182 47.9307 104.406 47.2627 103.85 46.3779C103.301 45.4932 103.026 44.4062 103.026 43.1172C103.026 41.8398 103.295 40.7441 103.833 39.8301C104.372 38.916 105.125 38.2158 106.094 37.7295C107.069 37.2432 108.2 37 109.486 37H117V55ZM106.8 46.7383H111.832L107.582 55H102.448L106.8 46.7383Z" fill="#00BFEA"/>
</svg>